# Blender v2.93.1 OBJ File: ''
# www.blender.org
o Plane
v -5.000000 0.000000 5.000000
v 5.000000 0.000000 5.000000
v -5.000000 0.000000 -5.000000
v 5.000000 0.000000 -5.000000
v -4.000000 0.000000 5.000000
v -3.000000 0.000000 5.000000
v -2.000000 0.000000 5.000000
v -1.000000 0.000000 5.000000
v 0.000000 0.000000 5.000000
v 1.000000 0.000000 5.000000
v 2.000000 0.000000 5.000000
v 3.000000 0.000000 5.000000
v 4.000000 0.000000 5.000000
v 4.000000 0.000000 -5.000000
v 3.000000 0.000000 -5.000000
v 2.000000 0.000000 -5.000000
v 1.000000 0.000000 -5.000000
v 0.000000 0.000000 -5.000000
v -1.000000 0.000000 -5.000000
v -2.000000 0.000000 -5.000000
v -3.000000 0.000000 -5.000000
v -4.000000 0.000000 -5.000000
v -5.000000 0.000000 -4.002381
v -5.000000 0.000000 -3.002381
v -5.000000 0.000000 -2.002381
v -5.000000 0.000000 -1.002381
v -5.000000 0.000000 -0.002381
v -5.000000 0.000000 0.997619
v -5.000000 0.000000 1.997619
v -5.000000 0.000000 2.997619
v -5.000000 0.000000 3.997619
v 5.000000 0.000000 3.997619
v 5.000000 0.000000 2.997619
v 5.000000 0.000000 1.997619
v 5.000000 0.000000 0.997619
v 5.000000 0.000000 -0.002381
v 5.000000 0.000000 -1.002381
v 5.000000 0.000000 -2.002381
v 5.000000 0.000000 -3.002381
v 5.000000 0.000000 -4.002381
v -4.000000 0.000000 3.997619
v -4.000000 0.000000 2.997619
v -4.000000 0.000000 1.997619
v -4.000000 0.000000 0.997619
v -4.000000 0.000000 -0.002381
v -4.000000 0.000000 -1.002381
v -4.000000 0.000000 -2.002381
v -4.000000 0.000000 -3.002381
v -4.000000 0.000000 -4.002381
v -3.000000 0.000000 3.997619
v -3.000000 0.000000 2.997619
v -3.000000 0.000000 1.997619
v -3.000000 0.000000 0.997619
v -3.000000 0.000000 -0.002381
v -3.000000 0.000000 -1.002381
v -3.000000 0.000000 -2.002381
v -3.000000 0.000000 -3.002381
v -3.000000 0.000000 -4.002381
v -2.000000 0.000000 3.997619
v -2.000000 0.000000 2.997619
v -2.000000 0.000000 1.997619
v -2.000000 0.000000 0.997619
v -2.000000 0.000000 -0.002381
v -2.000000 0.000000 -1.002381
v -2.000000 0.000000 -2.002381
v -2.000000 0.000000 -3.002381
v -2.000000 0.000000 -4.002381
v -1.000000 0.000000 3.997619
v -1.000000 0.000000 2.997619
v -1.000000 0.000000 1.997619
v -1.000000 0.000000 0.997619
v -1.000000 0.000000 -0.002381
v -1.000000 0.000000 -1.002381
v -1.000000 0.000000 -2.002381
v -1.000000 0.000000 -3.002381
v -1.000000 0.000000 -4.002381
v 0.000000 0.000000 3.997619
v 0.000000 0.000000 2.997619
v 0.000000 0.000000 1.997619
v 0.000000 0.000000 0.997619
v 0.000000 0.000000 -0.002381
v 0.000000 0.000000 -1.002381
v 0.000000 0.000000 -2.002381
v 0.000000 0.000000 -3.002381
v 0.000000 0.000000 -4.002381
v 1.000000 0.000000 3.997619
v 1.000000 0.000000 2.997619
v 1.000000 0.000000 1.997619
v 1.000000 0.000000 0.997619
v 1.000000 0.000000 -0.002381
v 1.000000 0.000000 -1.002381
v 1.000000 0.000000 -2.002381
v 1.000000 0.000000 -3.002381
v 1.000000 0.000000 -4.002381
v 2.000000 0.000000 3.997619
v 2.000000 0.000000 2.997619
v 2.000000 0.000000 1.997619
v 2.000000 0.000000 0.997619
v 2.000000 0.000000 -0.002381
v 2.000000 0.000000 -1.002381
v 2.000000 0.000000 -2.002381
v 2.000000 0.000000 -3.002381
v 2.000000 0.000000 -4.002381
v 3.000000 0.000000 3.997619
v 3.000000 0.000000 2.997619
v 3.000000 0.000000 1.997619
v 3.000000 0.000000 0.997619
v 3.000000 0.000000 -0.002381
v 3.000000 0.000000 -1.002381
v 3.000000 0.000000 -2.002381
v 3.000000 0.000000 -3.002381
v 3.000000 0.000000 -4.002381
v 4.000000 0.000000 3.997619
v 4.000000 0.000000 2.997619
v 4.000000 0.000000 1.997619
v 4.000000 0.000000 0.997619
v 4.000000 0.000000 -0.002381
v 4.000000 0.000000 -1.002381
v 4.000000 0.000000 -2.002381
v 4.000000 0.000000 -3.002381
v 4.000000 0.000000 -4.002381
vn 0.0000 1.0000 0.0000
s off
f 121//1 40//1 4//1 14//1
f 23//1 49//1 22//1 3//1
f 49//1 58//1 21//1 22//1
f 58//1 67//1 20//1 21//1
f 67//1 76//1 19//1 20//1
f 76//1 85//1 18//1 19//1
f 85//1 94//1 17//1 18//1
f 94//1 103//1 16//1 17//1
f 103//1 112//1 15//1 16//1
f 112//1 121//1 14//1 15//1
f 12//1 13//1 113//1 104//1
f 104//1 113//1 114//1 105//1
f 105//1 114//1 115//1 106//1
f 106//1 115//1 116//1 107//1
f 107//1 116//1 117//1 108//1
f 108//1 117//1 118//1 109//1
f 109//1 118//1 119//1 110//1
f 110//1 119//1 120//1 111//1
f 111//1 120//1 121//1 112//1
f 11//1 12//1 104//1 95//1
f 95//1 104//1 105//1 96//1
f 96//1 105//1 106//1 97//1
f 97//1 106//1 107//1 98//1
f 98//1 107//1 108//1 99//1
f 99//1 108//1 109//1 100//1
f 100//1 109//1 110//1 101//1
f 101//1 110//1 111//1 102//1
f 102//1 111//1 112//1 103//1
f 10//1 11//1 95//1 86//1
f 86//1 95//1 96//1 87//1
f 87//1 96//1 97//1 88//1
f 88//1 97//1 98//1 89//1
f 89//1 98//1 99//1 90//1
f 90//1 99//1 100//1 91//1
f 91//1 100//1 101//1 92//1
f 92//1 101//1 102//1 93//1
f 93//1 102//1 103//1 94//1
f 9//1 10//1 86//1 77//1
f 77//1 86//1 87//1 78//1
f 78//1 87//1 88//1 79//1
f 79//1 88//1 89//1 80//1
f 80//1 89//1 90//1 81//1
f 81//1 90//1 91//1 82//1
f 82//1 91//1 92//1 83//1
f 83//1 92//1 93//1 84//1
f 84//1 93//1 94//1 85//1
f 8//1 9//1 77//1 68//1
f 68//1 77//1 78//1 69//1
f 69//1 78//1 79//1 70//1
f 70//1 79//1 80//1 71//1
f 71//1 80//1 81//1 72//1
f 72//1 81//1 82//1 73//1
f 73//1 82//1 83//1 74//1
f 74//1 83//1 84//1 75//1
f 75//1 84//1 85//1 76//1
f 7//1 8//1 68//1 59//1
f 59//1 68//1 69//1 60//1
f 60//1 69//1 70//1 61//1
f 61//1 70//1 71//1 62//1
f 62//1 71//1 72//1 63//1
f 63//1 72//1 73//1 64//1
f 64//1 73//1 74//1 65//1
f 65//1 74//1 75//1 66//1
f 66//1 75//1 76//1 67//1
f 6//1 7//1 59//1 50//1
f 50//1 59//1 60//1 51//1
f 51//1 60//1 61//1 52//1
f 52//1 61//1 62//1 53//1
f 53//1 62//1 63//1 54//1
f 54//1 63//1 64//1 55//1
f 55//1 64//1 65//1 56//1
f 56//1 65//1 66//1 57//1
f 57//1 66//1 67//1 58//1
f 5//1 6//1 50//1 41//1
f 41//1 50//1 51//1 42//1
f 42//1 51//1 52//1 43//1
f 43//1 52//1 53//1 44//1
f 44//1 53//1 54//1 45//1
f 45//1 54//1 55//1 46//1
f 46//1 55//1 56//1 47//1
f 47//1 56//1 57//1 48//1
f 48//1 57//1 58//1 49//1
f 1//1 5//1 41//1 31//1
f 31//1 41//1 42//1 30//1
f 30//1 42//1 43//1 29//1
f 29//1 43//1 44//1 28//1
f 28//1 44//1 45//1 27//1
f 27//1 45//1 46//1 26//1
f 26//1 46//1 47//1 25//1
f 25//1 47//1 48//1 24//1
f 24//1 48//1 49//1 23//1
f 13//1 2//1 32//1 113//1
f 113//1 32//1 33//1 114//1
f 114//1 33//1 34//1 115//1
f 115//1 34//1 35//1 116//1
f 116//1 35//1 36//1 117//1
f 117//1 36//1 37//1 118//1
f 118//1 37//1 38//1 119//1
f 119//1 38//1 39//1 120//1
f 120//1 39//1 40//1 121//1
