# Blender v2.93.1 OBJ File: ''
# www.blender.org
o Plane
v -5.000000 -1.932046 5.000000
v 5.000000 -1.065002 5.000000
v -5.000000 0.487483 -5.000000
v 5.000000 -0.701888 -5.000000
v -4.000000 -0.623696 5.000000
v -3.000000 0.553904 5.000000
v -2.000000 0.415989 5.000000
v -1.000000 -0.637125 5.000000
v 0.000000 0.480948 5.000000
v 1.000000 -1.586941 5.000000
v 2.000000 -0.249582 5.000000
v 3.000000 -1.279865 5.000000
v 4.000000 0.036217 5.000000
v 4.000000 1.160384 -5.000000
v 3.000000 -1.881932 -5.000000
v 2.000000 0.191299 -5.000000
v 1.000000 -1.663164 -5.000000
v 0.000000 0.384663 -5.000000
v -1.000000 -0.997484 -5.000000
v -2.000000 0.428049 -5.000000
v -3.000000 0.010288 -5.000000
v -4.000000 -1.435663 -5.000000
v -5.000000 0.625423 -4.000000
v -5.000000 1.035006 -3.000000
v -5.000000 0.086446 -2.000000
v -5.000000 1.335547 -1.000000
v -5.000000 0.625852 0.000000
v -5.000000 0.627951 1.000000
v -5.000000 -0.895426 2.000000
v -5.000000 0.100335 3.000000
v -5.000000 -0.998444 4.000000
v 5.000000 0.894836 4.000000
v 5.000000 -0.968047 3.000000
v 5.000000 -2.354430 2.000000
v 5.000000 -0.124891 1.000000
v 5.000000 -0.537114 0.000000
v 5.000000 -1.273331 -1.000000
v 5.000000 1.207133 -2.000000
v 5.000000 0.436353 -3.000000
v 5.000000 -0.567574 -4.000000
v -4.000000 1.649345 4.000000
v -4.000000 0.982826 3.000000
v -4.000000 -1.230807 2.000000
v -4.000000 -2.327737 1.000000
v -4.000000 0.863790 0.000000
v -4.000000 2.225103 -1.000000
v -4.000000 -0.758810 -2.000000
v -4.000000 -0.524302 -3.000000
v -4.000000 0.247364 -4.000000
v -3.000000 0.426617 4.000000
v -3.000000 0.095743 3.000000
v -3.000000 -1.863659 2.000000
v -3.000000 -2.822977 1.000000
v -3.000000 0.001410 0.000000
v -3.000000 0.373645 -1.000000
v -3.000000 -0.585805 -2.000000
v -3.000000 1.425064 -3.000000
v -3.000000 -1.519081 -4.000000
v -2.000000 -0.954563 4.000000
v -2.000000 -2.045951 3.000000
v -2.000000 -1.437375 2.000000
v -2.000000 -2.227946 1.000000
v -2.000000 0.338491 0.000000
v -2.000000 1.275290 -1.000000
v -2.000000 -1.451671 -2.000000
v -2.000000 -0.366824 -3.000000
v -2.000000 1.209347 -4.000000
v -1.000000 -1.328991 4.000000
v -1.000000 1.162980 3.000000
v -1.000000 -1.687194 2.000000
v -1.000000 -1.842325 1.000000
v -1.000000 1.923860 0.000000
v -1.000000 -0.115022 -1.000000
v -1.000000 -0.174200 -2.000000
v -1.000000 0.565462 -3.000000
v -1.000000 -1.843014 -4.000000
v 0.000000 0.384834 4.000000
v 0.000000 2.144937 3.000000
v 0.000000 -0.487043 2.000000
v 0.000000 0.326052 1.000000
v 0.000000 0.580657 0.000000
v 0.000000 0.241183 -1.000000
v 0.000000 1.998263 -2.000000
v 0.000000 0.350681 -3.000000
v 0.000000 -0.715095 -4.000000
v 1.000000 0.579969 4.000000
v 1.000000 0.092312 3.000000
v 1.000000 -0.937052 2.000000
v 1.000000 -0.480015 1.000000
v 1.000000 -1.375369 0.000000
v 1.000000 0.245706 -1.000000
v 1.000000 -0.231586 -2.000000
v 1.000000 2.323239 -3.000000
v 1.000000 -0.899362 -4.000000
v 2.000000 0.500154 4.000000
v 2.000000 0.037570 3.000000
v 2.000000 0.039872 2.000000
v 2.000000 1.428762 1.000000
v 2.000000 0.720351 0.000000
v 2.000000 0.413138 -1.000000
v 2.000000 -0.214595 -2.000000
v 2.000000 2.141644 -3.000000
v 2.000000 1.823471 -4.000000
v 3.000000 -0.275180 4.000000
v 3.000000 -0.686537 3.000000
v 3.000000 -2.127185 2.000000
v 3.000000 -1.350228 1.000000
v 3.000000 1.416810 0.000000
v 3.000000 -1.569220 -1.000000
v 3.000000 -0.265950 -2.000000
v 3.000000 1.399581 -3.000000
v 3.000000 -1.320609 -4.000000
v 4.000000 0.632710 4.000000
v 4.000000 1.487656 3.000000
v 4.000000 0.293301 2.000000
v 4.000000 -0.763335 1.000000
v 4.000000 1.601291 0.000000
v 4.000000 -0.030930 -1.000000
v 4.000000 -0.257799 -2.000000
v 4.000000 -0.190273 -3.000000
v 4.000000 -1.197551 -4.000000
vn 0.3810 0.6183 0.6874
vn 0.6480 0.5632 -0.5128
vn 0.1578 0.9846 -0.0756
vn -0.8274 0.5260 0.1967
vn 0.9130 0.4078 0.0131
vn -0.6688 0.5329 0.5183
vn 0.7401 0.6632 0.1114
vn -0.8262 0.3610 -0.4325
vn 0.8692 0.3332 -0.3654
vn -0.7622 0.4816 0.4326
vn -0.6555 0.5895 0.4720
vn -0.8328 0.5404 0.1199
vn -0.8115 0.3533 -0.4654
vn -0.8302 0.5521 -0.0772
vn -0.1387 0.3596 0.9227
vn -0.3239 0.3760 -0.8682
vn -0.5628 0.7279 0.3917
vn 0.5130 0.6487 0.5621
vn 0.3276 0.4467 -0.8325
vn 0.5616 0.6220 0.5456
vn 0.5662 0.7553 -0.3300
vn 0.7612 0.5265 -0.3787
vn 0.8590 0.3473 0.3761
vn 0.5873 0.5640 0.5805
vn 0.3166 0.4924 -0.8108
vn 0.6938 0.6823 0.2305
vn 0.1740 0.4385 0.8817
vn 0.7301 0.3757 -0.5708
vn -0.3350 0.5328 0.7771
vn 0.0607 0.9016 -0.4284
vn -0.3795 0.8230 -0.4226
vn -0.7275 0.5042 0.4654
vn -0.8422 0.4206 -0.3373
vn -0.6871 0.6072 0.3989
vn -0.0804 0.8724 -0.4820
vn 0.0310 0.3770 0.9257
vn -0.5299 0.4171 -0.7384
vn 0.5453 0.5823 0.6029
vn 0.6168 0.6641 0.4225
vn 0.5144 0.4111 -0.7526
vn 0.4684 0.7458 0.4736
vn 0.7960 0.5764 -0.1847
vn 0.6348 0.6506 0.4169
vn 0.6838 0.6146 0.3933
vn 0.1164 0.9045 0.4103
vn -0.3535 0.3954 -0.8478
vn -0.7965 0.5625 -0.2216
vn -0.4976 0.3692 0.7849
vn -0.3502 0.3210 -0.8799
vn -0.8480 0.5035 0.1656
vn -0.1807 0.4380 0.8806
vn 0.3027 0.6134 -0.7294
vn -0.6940 0.5489 0.4660
vn -0.6654 0.6798 -0.3086
vn -0.2221 0.4864 -0.8450
vn 0.4450 0.6234 -0.6429
vn -0.7577 0.5346 0.3744
vn -0.7017 0.4743 -0.5316
vn -0.0613 0.9023 -0.4267
vn -0.2845 0.2887 0.9142
vn -0.0851 0.8727 -0.4809
vn 0.0329 0.5828 -0.8119
vn -0.6323 0.5723 0.5221
vn 0.6994 0.6598 -0.2746
vn 0.5195 0.6839 -0.5122
vn 0.8205 0.4658 -0.3313
vn 0.5793 0.6755 -0.4562
vn -0.3587 0.7025 -0.6147
vn -0.1600 0.3434 0.9255
vn -0.4601 0.7429 0.4862
vn -0.0085 0.4769 -0.8789
vn 0.5849 0.4401 0.6813
vn -0.3605 0.7699 -0.5266
vn 0.0154 0.6817 0.7314
vn 0.6865 0.6507 -0.3245
vn 0.3121 0.4106 -0.8568
vn 0.3660 0.6489 -0.6671
vn 0.2094 0.3085 0.9279
vn 0.7159 0.5276 0.4573
vn 0.3549 0.4229 -0.8338
vn -0.5767 0.5434 0.6101
vn -0.0618 0.6760 -0.7343
vn -0.7231 0.3656 0.5861
vn -0.8652 0.4901 0.1059
vn -0.1432 0.5234 -0.8400
vn 0.8494 0.5162 0.1101
vn 0.5853 0.4307 0.6869
vn -0.3647 0.6468 0.6698
vn -0.0095 0.4272 -0.9041
vn 0.7191 0.5981 0.3538
vn 0.6900 0.7123 0.1289
vn 0.2503 0.5966 0.7625
vn 0.6997 0.6380 -0.3215
vn 0.8424 0.3301 -0.4260
vn 0.6549 0.6519 0.3823
vn 0.4729 0.6305 0.6155
vn 0.7371 0.4360 -0.5164
vn -0.0737 0.6620 0.7459
vn -0.7023 0.6716 -0.2361
vn -0.4051 0.6447 -0.6483
s off
f 121//1 40//1 4//1 14//1
f 23//2 49//2 22//2 3//2
f 49//3 58//3 21//3 22//3
f 58//4 67//4 20//4 21//4
f 67//5 76//5 19//5 20//5
f 76//6 85//6 18//6 19//6
f 85//7 94//7 17//7 18//7
f 94//8 103//8 16//8 17//8
f 103//9 112//9 15//9 16//9
f 112//10 121//10 14//10 15//10
f 12//11 13//11 113//11 104//11
f 104//12 113//12 114//12 105//12
f 105//13 114//13 115//13 106//13
f 106//14 115//14 116//14 107//14
f 107//15 116//15 117//15 108//15
f 108//16 117//16 118//16 109//16
f 109//17 118//17 119//17 110//17
f 110//18 119//18 120//18 111//18
f 111//19 120//19 121//19 112//19
f 11//20 12//20 104//20 95//20
f 95//21 104//21 105//21 96//21
f 96//22 105//22 106//22 97//22
f 97//23 106//23 107//23 98//23
f 98//24 107//24 108//24 99//24
f 99//25 108//25 109//25 100//25
f 100//26 109//26 110//26 101//26
f 101//27 110//27 111//27 102//27
f 102//28 111//28 112//28 103//28
f 10//29 11//29 95//29 86//29
f 86//30 95//30 96//30 87//30
f 87//31 96//31 97//31 88//31
f 88//32 97//32 98//32 89//32
f 89//33 98//33 99//33 90//33
f 90//34 99//34 100//34 91//34
f 91//35 100//35 101//35 92//35
f 92//36 101//36 102//36 93//36
f 93//37 102//37 103//37 94//37
f 9//38 10//38 86//38 77//38
f 77//39 86//39 87//39 78//39
f 78//40 87//40 88//40 79//40
f 79//41 88//41 89//41 80//41
f 80//42 89//42 90//42 81//42
f 81//43 90//43 91//43 82//43
f 82//44 91//44 92//44 83//44
f 83//45 92//45 93//45 84//45
f 84//46 93//46 94//46 85//46
f 8//47 9//47 77//47 68//47
f 68//48 77//48 78//48 69//48
f 69//49 78//49 79//49 70//49
f 70//50 79//50 80//50 71//50
f 71//51 80//51 81//51 72//51
f 72//52 81//52 82//52 73//52
f 73//53 82//53 83//53 74//53
f 74//54 83//54 84//54 75//54
f 75//55 84//55 85//55 76//55
f 7//56 8//56 68//56 59//56
f 59//57 68//57 69//57 60//57
f 60//58 69//58 70//58 61//58
f 61//59 70//59 71//59 62//59
f 62//60 71//60 72//60 63//60
f 63//61 72//61 73//61 64//61
f 64//62 73//62 74//62 65//62
f 65//63 74//63 75//63 66//63
f 66//64 75//64 76//64 67//64
f 6//65 7//65 59//65 50//65
f 50//66 59//66 60//66 51//66
f 51//67 60//67 61//67 52//67
f 52//68 61//68 62//68 53//68
f 53//69 62//69 63//69 54//69
f 54//70 63//70 64//70 55//70
f 55//71 64//71 65//71 56//71
f 56//72 65//72 66//72 57//72
f 57//73 66//73 67//73 58//73
f 5//74 6//74 50//74 41//74
f 41//75 50//75 51//75 42//75
f 42//76 51//76 52//76 43//76
f 43//77 52//77 53//77 44//77
f 44//78 53//78 54//78 45//78
f 45//79 54//79 55//79 46//79
f 46//80 55//80 56//80 47//80
f 47//81 56//81 57//81 48//81
f 48//82 57//82 58//82 49//82
f 1//83 5//83 41//83 31//83
f 31//84 41//84 42//84 30//84
f 30//85 42//85 43//85 29//85
f 29//86 43//86 44//86 28//86
f 28//87 44//87 45//87 27//87
f 27//88 45//88 46//88 26//88
f 26//89 46//89 47//89 25//89
f 25//90 47//90 48//90 24//90
f 24//91 48//91 49//91 23//91
f 13//92 2//92 32//92 113//92
f 113//93 32//93 33//93 114//93
f 114//94 33//94 34//94 115//94
f 115//95 34//95 35//95 116//95
f 116//96 35//96 36//96 117//96
f 117//97 36//97 37//97 118//97
f 118//98 37//98 38//98 119//98
f 119//99 38//99 39//99 120//99
f 120//100 39//100 40//100 121//100
